{"title":"The Tempest(2010)MPEG-4[DaScubaDude]","uid":15230616,"size":1197151533,"categoryP":"video","categoryS":"movies","magnet":"?xt=urn:btih:b5ed1e47693402c06863ac18a5d0282cb1262996&amp;dn=The+Tempest%282010%29MPEG-4%5BDaScubaDude%5D&amp;tr=udp%3A%2F%2Ftracker.leechers-paradise.org%3A6969&amp;tr=udp%3A%2F%2Fzer0day.ch%3A1337&amp;tr=udp%3A%2F%2Fopen.demonii.com%3A1337&amp;tr=udp%3A%2F%2Ftracker.coppersurfer.tk%3A6969&amp;tr=udp%3A%2F%2Fexodus.desync.com%3A6969","seeders":2,"leechers":3,"uploader":"dascuba","files":1,"time":1467818086,"description":"The Tempest (2010)\r\nPG-13 | 1h 50min | Comedy, Drama, Fantasy | 7 January 2011 (Brazil)\r\nShakespeare's epic play is translated from page to screen, with the gender of the main character, Prospero, changed from male to female.\r\nDirector: Julie Taymor\r\nWriters: Julie Taymor (screenplay), William Shakespeare (play)\r\nStars: Helen Mirren, Felicity Jones, Djimon Hounsou |\r\n\r\nGeneral\r\nComplete name                            : The TempestThe_Tempest_USA_DES_Title2.mp4\r\nFormat                                   : MPEG-4\r\nFormat profile                           : Base Media\r\nCodec ID                                 : isom (isom/iso2/avc1/mp41)\r\nFile size                                : 1.11 GiB\r\nDuration                                 : 1h 49mn\r\nOverall bit rate                         : 1 451 Kbps\r\nMovie name                               : The_Tempest_USA_DES\r\nGenre                                    : Fantasy\r\nWriting application                      : Lavf54.6.100\r\n\r\nVideo\r\nID                                       : 1\r\nFormat                                   : AVC\r\nFormat/Info                              : Advanced Video Codec\r\nFormat profile                           :   \r\nFormat settings, CABAC                   : No\r\nFormat settings, ReFrames                : 6 frames\r\nCodec ID                                 : avc1\r\nCodec ID/Info                            : Advanced Video Coding\r\nDuration                                 : 1h 49mn\r\nBit rate                                 : 1 191 Kbps\r\nWidth                                    : 720 pixels\r\nHeight                                   : 404 pixels\r\nDisplay aspect ratio                     : 16:9\r\nFrame rate mode                          : Constant\r\nFrame rate                               : 29.970 (30000/1001) fps\r\nColor space                              : YUV\r\nChroma subsampling                       : 4:2:0\r\nBit depth                                : 8 bits\r\nScan type                                : Progressive\r\nBits/(Pixel*Frame)                       : 0.137\r\nStream size                              : 937 MiB (82%)\r\n\r\nAudio\r\nID                                       : 2\r\nFormat                                   : AAC\r\nFormat/Info                              : Advanced Audio Codec\r\nFormat profile                           : LC\r\nCodec ID                                 : 40\r\nDuration                                 : 1h 49mn\r\nBit rate mode                            : Constant\r\nBit rate                                 : 254 Kbps\r\nChannel(s)                               : 2 channels\r\nChannel(s)_Original                      : 6 channels\r\nChannel positions                        : Front: L C R, Side: L R, LFE\r\nSampling rate                            : 44.1 KHz\r\nFrame rate                               : 43.066 fps (1024 spf)\r\nCompression mode                         : Lossy\r\nStream size                              : 199 MiB (17%)\r\nDefault                                  : Yes\r\nAlternate group                          : 1","torrent":{"xt":"urn:btih:b5ed1e47693402c06863ac18a5d0282cb1262996","amp;dn":"The+Tempest%282010%29MPEG-4%5BDaScubaDude%5D","amp;tr":["udp%3A%2F%2Ftracker.leechers-paradise.org%3A6969","udp%3A%2F%2Fzer0day.ch%3A1337","udp%3A%2F%2Fopen.demonii.com%3A1337","udp%3A%2F%2Ftracker.coppersurfer.tk%3A6969","udp%3A%2F%2Fexodus.desync.com%3A6969"],"infoHash":"b5ed1e47693402c06863ac18a5d0282cb1262996","infoHashBuffer":{"type":"Buffer","data":[181,237,30,71,105,52,2,192,104,99,172,24,165,208,40,44,177,38,41,150]},"announce":[],"urlList":[]}}